PathFileType	4	(X/Y/Z)	s11c0101.trc
DataRate	CameraRate	NumFrames	NumMarkers	Units	OrigDataRate	OrigDataStartFrame	OrigNumFrames
200	200	4	48	mm	200	500	2000
Frame#	Time	racr			lacr			c7			jug			rlel			rdr			llel			ldr			s2			lic			ric			lasi			rasi			rpsi			lpsi			rgt			lgt			rth1			rth2			rth3			rth4			rlfc			rmfc			rsh1			rsh2			rsh3			rsh4			rlmal			rcal			rtoe			rmt5			lth1			lth2			lth4			lth3			llfc			lmfc			llmal			lcal			lmt5			lsh1			lsh2			lsh3			lsh4			ltoe			SBIKE			LBIKE			RBIKE			
		X1	Y1	Z1	X2	Y2	Z2	X3	Y3	Z3	X4	Y4	Z4	X5	Y5	Z5	X6	Y6	Z6	X7	Y7	Z7	X8	Y8	Z8	X9	Y9	Z9	X10	Y10	Z10	X11	Y11	Z11	X12	Y12	Z12	X13	Y13	Z13	X14	Y14	Z14	X15	Y15	Z15	X16	Y16	Z16	X17	Y17	Z17	X18	Y18	Z18	X19	Y19	Z19	X20	Y20	Z20	X21	Y21	Z21	X22	Y22	Z22	X23	Y23	Z23	X24	Y24	Z24	X25	Y25	Z25	X26	Y26	Z26	X27	Y27	Z27	X28	Y28	Z28	X29	Y29	Z29	X30	Y30	Z30	X31	Y31	Z31	X32	Y32	Z32	X33	Y33	Z33	X34	Y34	Z34	X35	Y35	Z35	X36	Y36	Z36	X37	Y37	Z37	X38	Y38	Z38	X39	Y39	Z39	X40	Y40	Z40	X41	Y41	Z41	X42	Y42	Z42	X43	Y43	Z43	X44	Y44	Z44	X45	Y45	Z45	X46	Y46	Z46	X47	Y47	Z47	X48	Y48	Z48	
500	2.5000	479.155942	1414.498373	-107.175132	472.067561	1446.834567	-435.068798	383.203431	1540.082681	-268.000361	443.807471	1370.691864	-276.357242	594.109653	1164.416224	-39.086479	786.572795	933.706270	-74.924581	545.571723	1148.636636	-515.745140	781.361976	927.860109	-467.189381	-124.941327	1209.522462	-245.507438	94.703736	1225.514327	-457.010132	108.027730	1214.992194	-63.273086	123.059246	1150.949930	-418.256802	135.494212	1150.296248	-94.561003	-77.531462	1280.524776	-193.621552	-85.771317	1274.450338	-292.475022	43.167097	1064.898301	-36.030399	11.931272	1104.148416	-464.823428	149.557247	968.470886	-30.180216	231.744472	934.529917	-39.344853	283.216022	864.487815	-50.678059	253.023889	962.384576	-50.906404	358.520551	787.702848	-67.079642	359.366904	770.679679	-195.944335	256.670883	663.835611	-60.179589	213.079391	590.547702	-83.244232	138.992667	545.273907	-86.461638	232.249257	578.228034	-115.634835	36.113719	464.204923	-101.208119	-29.686241	483.366925	-150.278560	192.893971	302.954840	-147.789211	120.777160	317.161795	-77.613216	139.079903	1021.415895	-478.221021	219.690305	993.382262	-474.917388	241.299891	1022.244544	-465.298707	277.874784	924.502770	-473.843025	389.803142	830.517331	-447.550780	403.346389	826.680093	-320.938505	280.445868	410.842853	-422.185710	225.094405	367.085424	-388.645601	425.948518	314.726751	-458.088656	355.489997	708.946456	-467.211297	361.093015	623.511362	-454.376438	323.208862	543.940810	-448.528796	392.419325	620.375086	-432.376759	521.603422	338.760226	-390.120503	-216.153946	960.200143	-256.486008	-17.837159	80.930638	-460.984486	-17.901792	80.786026	-62.069500	
501	2.5050	479.373729	1414.342672	-107.259821	472.310383	1446.761751	-435.424945	383.614749	1539.753351	-268.131793	443.944774	1370.200957	-276.510106	593.231553	1164.038567	-38.061815	786.165905	933.740648	-75.055718	542.583053	1147.180878	-517.119867	781.382444	928.840937	-468.513047	-124.863456	1209.592544	-245.672940	94.780965	1225.861585	-457.222469	107.939675	1215.386929	-63.385985	123.138960	1151.145829	-418.670229	135.364538	1150.567549	-94.645929	-77.641499	1280.714824	-193.761392	-85.744910	1274.594762	-292.606583	43.461506	1065.669588	-36.119011	12.180516	1104.037719	-464.614390	150.610355	969.990234	-30.231103	232.971036	936.645777	-39.442510	284.937045	866.870975	-50.530687	254.093710	964.693346	-51.145479	360.580465	790.408857	-66.939889	360.876003	773.072505	-195.875345	258.101770	666.656040	-60.113350	214.176301	593.490588	-83.206364	139.820663	548.616219	-86.725422	233.351800	581.102578	-115.541296	36.623888	468.165202	-101.212996	-29.224809	487.295282	-150.283574	193.201557	306.518170	-147.863936	121.052530	321.132899	-77.662939	138.859978	1020.681450	-478.105020	219.315506	992.088688	-474.661736	241.133552	1020.835674	-465.127782	277.045868	922.944614	-473.501051	388.684127	828.433830	-447.145389	402.067914	824.582160	-320.269910	281.011832	407.674859	-422.438328	225.361567	364.368696	-389.143461	426.110105	310.677510	-458.033701	355.246356	706.589863	-467.252240	361.129392	621.152595	-454.258435	323.619416	541.392413	-448.629615	392.360712	618.127723	-432.102125	521.704582	334.219076	-389.937696	-216.141361	960.194294	-256.483031	-17.835039	80.924558	-460.977833	-17.899574	80.783077	-62.079066	
502	2.5100	479.660870	1414.200813	-107.297368	472.535788	1446.601578	-435.700633	384.020881	1539.367035	-268.155515	444.047892	1369.733812	-276.640566	592.290886	1163.541901	-37.000536	785.793969	933.798731	-74.790886	539.501227	1145.639767	-518.434310	780.728714	929.184965	-469.113682	-124.735646	1209.758012	-245.859049	94.799926	1226.018922	-457.191788	107.816917	1215.790418	-63.542448	123.133959	1150.984224	-418.767302	135.168336	1150.867387	-94.704396	-77.759339	1280.901224	-193.897165	-85.695991	1274.755156	-292.744000	43.875107	1066.401547	-36.247607	12.360406	1103.855416	-464.391564	151.707952	971.801451	-30.536379	234.378897	939.125287	-39.352662	286.824239	869.450994	-50.394710	255.138773	967.137502	-51.856445	363.089999	793.333639	-66.759781	362.766180	775.597498	-195.714600	259.721390	669.835612	-60.043968	215.400344	596.908994	-83.203597	140.686264	552.337403	-86.930566	234.528376	584.311761	-115.553857	36.846913	472.404820	-101.358804	-28.766674	491.748200	-150.324290	193.687971	311.081357	-147.867975	121.517260	325.520481	-77.702978	138.609513	1019.710916	-477.939486	218.874454	990.610934	-474.467190	240.825933	1019.204619	-464.927911	276.067547	921.051226	-473.099053	387.329066	826.010047	-446.726363	400.528553	822.070573	-319.657026	281.524384	404.196709	-423.108008	225.531253	361.137975	-389.670763	426.116837	306.089603	-458.004476	354.750303	703.749801	-467.008030	360.983308	618.430868	-454.135981	323.896022	538.460595	-448.712546	392.119884	615.541331	-431.821610	521.857983	329.240650	-389.929785	-216.137830	960.205788	-256.443940	-17.768483	80.818426	-461.088056	-17.914851	80.780052	-62.082436	
503	2.5150	480.383589	1414.337952	-106.841848	472.759688	1446.280314	-435.964987	384.422532	1538.924152	-268.124797	444.151239	1369.201761	-276.795237	591.344342	1163.108823	-35.806861	784.304348	933.718040	-75.130551	536.440043	1143.893115	-519.334876	780.087296	929.473980	-469.618389	-125.339377	1210.107033	-245.446191	94.887952	1226.136941	-457.232059	107.678018	1216.109631	-63.678319	123.163002	1150.856176	-419.037489	134.975977	1151.141356	-94.793918	-77.915943	1281.194541	-194.037979	-85.574310	1274.887113	-292.845963	44.326911	1067.256920	-36.274060	12.537068	1103.606813	-464.206941	152.853711	973.656156	-30.629843	235.839729	941.554478	-39.456678	288.450991	872.344411	-50.331239	256.339612	969.730582	-51.991396	365.536870	796.496665	-66.640797	365.002271	778.585282	-195.513819	261.547782	673.300106	-59.971506	216.709267	600.770110	-83.245561	141.780647	556.510010	-87.015595	235.789465	588.110022	-115.575565	37.337371	477.268360	-101.422587	-28.289962	496.589348	-150.326267	194.268850	316.066001	-147.886479	122.138469	330.452293	-77.706225	138.301401	1018.679020	-477.864540	218.290358	988.786269	-474.201420	240.497275	1017.343795	-464.821997	274.921957	918.828690	-472.726779	385.782523	823.218986	-446.179736	399.233831	819.774240	-318.710182	281.937702	400.069918	-423.689831	225.564982	357.496317	-390.135734	425.898980	301.012978	-458.036975	353.866993	700.623413	-466.834068	360.591444	615.242238	-453.975145	323.871880	535.108633	-448.823442	391.635359	612.616361	-431.681214	521.614008	323.927654	-390.092934	-216.134109	960.209537	-256.436778	-17.775988	80.806433	-461.081560	-17.862308	80.796596	-62.157699	
